# xmcd
#
# Track frame offsets:
#	150
#	11825
#	26572
#	39325
#	50860
#	63997
#	77930
#	90960
#	105865
#	117867
#	128960
#	141455
#	156440
#	168645
#	184255
#
# Disc length: 2628
#
# Revision: 1
# Processed by: cddbd v1.5.1PL0 Copyright (c) Steve Scherf et al.
# Submitted via: dBpowerAMP V4.0
# Normalized: r0:TDELIM( - )
#
DISCID=cc0a420f
DTITLE=Various Artist - Love songs CD3
DYEAR=1996
DGENRE=Country
TTITLE0=Glen Campbell and Bobbie Gentry - All I have to do is dream
TTITLE1=Billie Jo Spears - (Hey won´t you Play?) Another somebody done somebody wrong song
TTITLE2=Slim Whitman - Love song of the waterfall
TTITLE3=Willie Nelson - Take as I am (Or let me go)
TTITLE4=Crystal Gayle - Talking in your sleep
TTITLE5=Suzy Boguss - Under the gun
TTITLE6=Dr. Hook - Oh Jessi
TTITLE7=Tanya Tucker - Delta down
TTITLE8=Wanda Jackson - Silver threads and golden needles
TTITLE9=Olivia Newton John - If
TTITLE10=Jean Shepard - My wedding ring
TTITLE11=Billie Jo Spears - I will survive
TTITLE12=Faron Young - Goin´steady
TTITLE13=Tanya Tucker - Shotgun
TTITLE14=Barbara Mandrell - I wish that I could fall in love today
EXTD=
EXTT0=
EXTT1=
EXTT2=
EXTT3=
EXTT4=
EXTT5=
EXTT6=
EXTT7=
EXTT8=
EXTT9=
EXTT10=
EXTT11=
EXTT12=
EXTT13=
EXTT14=
PLAYORDER=
